<?xml version="1.0" encoding="UTF-8"?>
<svg xmlns="http://www.w3.org/2000/svg" version="1.1" width="1024" height="1024" viewBox="0 0 1024 1024" xml:space="preserve">
  <desc>GeekBlazed logo mark (no text)</desc>

  <!-- Centered logo mark extracted from gb-logo-with-text.svg; text removed. -->
  <!-- Scaled up to reduce empty space in favicon rendering -->
  <g transform="matrix(4 0 0 4 512 512)">
    <g style="" paint-order="stroke">
      <g transform="matrix(0.5240404466931672 0 0 0.5240404466931671 -1.4072906304016328 0)">
        <linearGradient id="SVGID_1_4_1033464" gradientUnits="userSpaceOnUse" gradientTransform="matrix(1.0011636 -0.0237516 0.0586406 0.9774394 -167.7246857 -267.9321899)" x1="563.9194336" y1="1122.9331055" x2="592.0024414" y2="793.6836548">
          <stop offset="6.17502%" style="stop-color:rgb(241,132,0);stop-opacity: 1" />
          <stop offset="32.62141%" style="stop-color:rgb(241,128,0);stop-opacity: 1" />
          <stop offset="56.363929999999996%" style="stop-color:rgb(240,118,0);stop-opacity: 1" />
          <stop offset="78.98374%" style="stop-color:rgb(239,99,0);stop-opacity: 1" />
          <stop offset="100%" style="stop-color:rgb(238,75,0);stop-opacity: 1" />
        </linearGradient>
        <path style="stroke: none; stroke-width: 1; stroke-dasharray: none; stroke-linecap: butt; stroke-dashoffset: 0; stroke-linejoin: miter; stroke-miterlimit: 4; fill: url(#SVGID_1_4_1033464); fill-rule: nonzero; opacity: 1" paint-order="stroke" transform=" translate(-468.32106991063074, -572.0790330853282)" d="M 603.5252686 571.562439 C 599.241272 575.7072754000001 592.7285157 578.9283448 587.4570923 575.815918 C 580.1815796 571.5202637 582.2071533 560.4615479 585.0925293 552.5994873 C 599.6107178 513.0404053 583.6398926 468.34661859999994 557.222168 437.12200929999995 C 537.9969483 414.3985900999999 511.87356570000003 398.71908569999994 484.6230164 387.96990969999996 C 461.7173768 378.93460089999996 437.71871949999996 373.79913329999994 413.479065 371.38836669999995 C 413.479065 371.38836669999995 418.827179 376.01986689999995 420.9724122 378.46954349999993 C 440.352234 400.5997924999999 439.0077821 432.93603519999994 424.1016236 462.4447326999999 C 418.873108 472.7952575999999 411.02462779999996 482.7308044999999 401.08966069999997 488.8588256999999 C 395.10141 492.5524291999999 386.17800909999994 495.2744445999999 382.06536869999996 486.7617797999999 C 375.8233643 473.8415526999999 389.13388069999996 452.51922609999986 397.40536499999996 439.0025024999999 C 397.40536499999996 439.0025024999999 385.8186646 445.79092409999987 380.52426149999997 449.8648376999999 C 375.77020269999997 453.5229797999999 371.2329407 457.4568786999999 366.91098029999995 461.6129150999999 C 357.9791261 470.2018432999999 349.96527109999994 479.7338562999999 342.84622199999995 489.8921203999999 C 328.16613779999994 510.8393249999999 317.14929209999997 534.5075683999999 310.37042239999994 559.3831177 C 303.8003539999999 583.4926757999999 301.13580329999996 609.1098632999999 304.49298099999993 634.3085937999999 C 304.79956059999995 636.6097412999999 305.1570739999999 638.9059448999999 305.5676879999999 641.1944580999999 C 317.1975097999999 706.0117187999999 369.66107179999995 759.1145630999999 434.6438903999999 770.1960449999999 C 511.2129516999999 783.2533569999999 586.5357666 745.8070678999999 619.1182250999999 676.4860229999999 C 624.5708617999999 664.8851928999999 628.6420897999999 652.5685424999999 630.8735351999999 639.8332519999999 C 634.3061523999999 620.2431030999999 634.8228759999998 598.8720703999999 630.5554199999999 579.0460205999999" stroke-linecap="round" />
      </g>

      <g transform="matrix(0.5240404466931672 0 0 0.5240404466931671 0 30.06578824793928)">
        <path style="stroke: none; stroke-width: 1; stroke-dasharray: none; stroke-linecap: butt; stroke-dashoffset: 0; stroke-linejoin: miter; stroke-miterlimit: 4; fill: rgb(68,15,30); fill-rule: nonzero; opacity: 1" paint-order="stroke" transform=" translate(-471.0065317662604, -629.4520630444894)" d="M 390.6596069 515.1674805 L 339.38537590000004 535.3738404000001 C 354.756958 501.4225464 390.6596069 515.1674805 390.6596069 515.1674805 z M 496.458252 511.5580444 L 548.4221192 528.5147094 C 531.755127 495.5523987 496.458252 511.5580444 496.458252 511.5580444 z M 648.9304199 532.197998 C 648.6520995999999 531.6796264 648.373291 531.1818237 648.0975341999999 530.7078857 C 641.7806396999999 519.85083 629.7404174999999 517.9287109 618.3977050999999 522.1212768 C 606.4620971999999 526.5330200000001 599.6115722999999 534.1122436 589.8050536999999 541.9080200000001 C 587.5831298999999 543.6743164000001 563.6804808999999 563.710083 564.3102416999999 564.4221802000001 C 549.7808837999999 547.9919434000001 528.2583007999999 538.3547974 504.8481749999999 540.2035523000001 C 475.9238890999999 542.4876710000001 452.1106261999999 561.6607667000001 441.8669432999999 587.5061036000001 C 433.8948668999999 588.3081666 427.0194090999999 588.1798097000001 421.7005003999999 587.7518311000001 C 412.4938658999999 557.8010254000001 384.1642759999999 537.2186890000002 352.0761717999999 539.7695313000002 C 339.4913023999999 540.7580567000001 327.9761351999999 545.2307129000002 318.2583616999999 552.1076050000001 L 317.8411253999999 552.4115601000002 C 298.7481382999999 566.1385498000002 286.8414305999999 589.3609009000002 288.5122679999999 614.7816163000002 C 291.0012511999999 653.2261353000002 323.5548704999999 681.9906007000002 361.1784361999999 678.9996949000002 C 373.7134092999999 678.0033570000003 385.2128904999999 673.6026002000002 394.9024046999999 666.7617799000002 C 397.3807676999999 667.4528810000002 400.0623167999999 667.6714479000002 402.8950804999999 667.2747194000002 C 386.66119379999986 664.0150148000002 380.6175841999999 645.3951418000003 390.2729491999999 632.8459474000002 C 401.4909667999999 619.5548707000003 417.6253966999999 636.1303102000003 430.2803649999999 640.1559450000002 C 427.2030639999999 637.6710817000002 424.4498900999999 635.9130861000002 420.3446349999999 632.9965212000002 C 422.2659301999999 627.4002077000002 424.1546935999999 620.4421389000001 424.63891599999994 614.3524172000002 C 428.60913079999995 614.4759524000002 432.91952509999993 614.7042849000002 436.48529049999996 614.9216311000002 C 436.46624749999995 616.8575442000002 436.45034789999994 618.7955325000003 436.57901 620.7583010000002 C 438.14285279999996 644.8018191000002 450.6626892 665.3117068000001 468.8285217 677.6248781000002 C 437.1382446 683.6500246000002 402.3218078 687.0097048000001 371.00207520000004 690.4631960000002 C 382.29687500000006 712.7732546000002 400.00152590000005 733.1640627000002 423.71618650000005 741.6187746000002 C 442.12048340000007 748.1802980000002 462.61184690000005 746.1661379000002 477.70159910000007 733.0643312000002 C 485.7203979000001 726.1017458000002 491.23425290000006 716.5434572000001 494.6630554000001 706.4772951000002 C 496.5060425000001 701.0671389000003 497.99337770000005 695.1326296000002 498.72293090000005 689.1662599000002 C 503.87213130000004 689.9058229000002 509.1649780000001 690.1511842000002 514.5668945000001 689.7149049000002 C 554.9989013 686.5189210000002 585.5438232000001 650.4627687000002 582.8762817000002 609.1896363000002 C 582.5040893000001 603.5098267000002 581.4694213000001 598.0535889000001 579.9482421000001 592.8297730000002 C 587.7844237000002 580.4504395000001 596.2506713000001 564.5059815000002 601.8214721000002 556.3753052000002 C 605.8934936000002 550.4321289000002 610.0391845000001 544.3958740000002 615.2891235000002 539.4132080000002 C 617.5458984000002 537.2713013000001 620.6680908000002 534.3964233000002 623.9965210000001 534.3237915000002 C 628.6006470000001 534.2232666000002 630.1839600000002 540.1317139000002 631.2064209000001 543.6588745000003 C 632.5925293000001 548.4405517000002 633.4059448000002 554.3687744000002 637.5910034000001 557.6299438000002 C 641.3431396000001 560.5537109000002 646.6485596000001 560.7189941000003 650.1383667000001 557.2835693000002 C 656.6538696 550.8696899 652.8444214 539.4891968 648.9304199 532.197998 z M 462.4583435 749.6264648 C 472.4777222 753.9789428 485.6530151 749.1573486 490.0657349 739.0351562 C 490.7144776 737.6724243 491.0778199 736.1522216 491.4187622 734.6904906999999 C 490.3117981 735.7297973 489.5077515 736.9262695 488.4307251 737.9463500999999 C 481.7658386 745.3884888 472.2706299 748.5685425 462.4583435 749.6264648 L 462.4583435 749.6264648 z" stroke-linecap="round" />
      </g>

      <g transform="matrix(0.5240404466931672 0 0 0.5240404466931671 -7.799436096424699 80.60055059091877)">
        <path style="stroke: none; stroke-width: 1; stroke-dasharray: none; stroke-linecap: butt; stroke-dashoffset: 0; stroke-linejoin: miter; stroke-miterlimit: 4; fill: rgb(225,1,27); fill-rule: nonzero; opacity: 1" paint-order="stroke" transform=" translate(-456.12326054999994, -725.8850056958956)" d="M 491.1308289 712.4191284 C 479.1403504 733.331543 459.57446289999996 743.8709716999999 434.5464173 738.321167 C 429.8890687 737.2199707 425.3830567 735.5869750999999 421.11569219999996 733.5144042999999 C 425.53378299999997 729.9744873 436.21557619999993 722.3436278999999 451.37753299999997 717.1793212999999 C 450.5661927 720.3173217999998 449.3854065 726.2968139999998 450.47409059999995 731.7205810999999 C 450.47409059999995 731.7205810999999 451.56426999999996 720.7488403999998 459.91378789999993 714.6940917999999 C 469.1638794 712.4398804 479.6413269 711.2960205 491.1308289 712.4191284 z" stroke-linecap="round" />
      </g>

      <g transform="matrix(0.5240404466931672 0 0 0.5240404466931671 -19.650471457610422 22.598791022251874)">
        <linearGradient id="SVGID_2_5_1033465" gradientUnits="userSpaceOnUse" gradientTransform="matrix(0.9987208 -0.0505681 0.050568 0.9987209 -33.0659752 25.6136608)" x1="432.3587341" y1="811.0482788" x2="439.0155945" y2="469.3285522">
          <stop offset="18.54553%" style="stop-color:rgb(255,255,255);stop-opacity: 1" />
          <stop offset="28.100530000000003%" style="stop-color:rgb(255,254,251);stop-opacity: 1" />
          <stop offset="36.68202%" style="stop-color:rgb(255,253,241);stop-opacity: 1" />
          <stop offset="44.89133%" style="stop-color:rgb(255,250,222);stop-opacity: 1" />
          <stop offset="52.869699999999995%" style="stop-color:rgb(255,246,196);stop-opacity: 1" />
          <stop offset="60.684360000000005%" style="stop-color:rgb(255,241,163);stop-opacity: 1" />
          <stop offset="68.27607%" style="stop-color:rgb(255,235,123);stop-opacity: 1" />
          <stop offset="69.13474%" style="stop-color:rgb(255,234,118);stop-opacity: 1" />
        </linearGradient>
        <path style="stroke: none; stroke-width: 1; stroke-dasharray: none; stroke-linecap: butt; stroke-dashoffset: 0; stroke-linejoin: miter; stroke-miterlimit: 4; fill: url(#SVGID_2_5_1033465); fill-rule: nonzero; opacity: 1" paint-order="stroke" transform=" translate(-433.50852644699546, -615.2031681876017)" d="M 504.1089783 557.8319092 C 472.4821167 560.3510742000001 448.5396424 588.5656738 450.6367798 620.9246216 C 452.7279358 653.2480469 480.0923767 677.4331665 511.7192993 674.9142456000001 C 543.3521728 672.4303589000001 567.2886352 644.1805420000001 565.1974487 611.8568115 C 563.1005859 579.4980469 535.736084 555.3128052 504.1089783 557.8319092 z M 351.5910339 555.475708 C 322.1376953 557.8208008 299.8330993 584.1043701000001 301.8148498 614.2393799 C 303.7564086 644.3444824000001 329.25250239999997 666.8811035 358.7058105 664.5357666 C 368.27746579999996 663.7701416 377.0824584 660.4887695 384.555664 655.3627319 C 383.28729239999996 652.8204344999999 382.480072 650.0582885 382.18612659999997 647.1762084999999 C 381.14901719999995 636.9274291999999 387.64205919999995 626.2460326999999 397.85974109999995 624.2172241 C 400.81771839999993 623.6262207 403.63156119999996 624.1074828999999 406.3356931999999 625.2219848 C 408.17556749999994 619.0977171999999 408.9484556999999 612.5328369 408.5221555999999 605.8017576999999 C 406.5404358 575.6669312 381.0845032 553.1599731 351.5910339 555.475708 z" stroke-linecap="round" />
      </g>

      <g transform="matrix(0.5240404466931672 0 0 0.5240404466931671 -22.013149835460865 30.319406775025755)">
        <path style="stroke: none; stroke-width: 1; stroke-dasharray: none; stroke-linecap: butt; stroke-dashoffset: 0; stroke-linejoin: miter; stroke-miterlimit: 4; fill: rgb(255,255,255); fill-rule: nonzero; opacity: 1" paint-order="stroke" transform=" translate(-428.99994625483737, -629.9360305105254)" d="M 556.5961914 599.4162598 C 555.9689940999999 602.5677491 552.8770751999999 604.6113892000001 549.6902465999999 603.9808350000001 C 546.5033569999999 603.3502808000001 544.4284058 600.2843628 545.0556029999999 597.1328736 C 545.6828002999999 593.9814454 548.7747191999999 591.9378052000001 551.9615478 592.5683594000001 C 555.1483765 593.1988525 557.2233887 596.2648315 556.5961914 599.4162598 z M 471.7001343 679.1524048 C 443.8735962 687.8389893 410.441803 692.1739502 381.8456726 696.0274658 C 383.6478577 698.9437256 385.5803833 701.8000488 387.6374817 704.5618286 C 389.263794 704.5551758 390.95849610000005 704.5361328 391.59396360000005 704.5288696 C 409.80517580000003 703.892395 430.06732180000006 701.6577758 447.92416380000003 697.6982422 C 451.05648800000006 697.0220947 454.1763611 696.2758789 457.3240356 695.4887695 C 466.919281 692.9918213 479.1986999 688.7106933 488.0536499 685.4469604 C 482.3145447 684.0376587 476.8320923 681.8970947 471.7001343 679.1524048 z M 362.4341125 583.6318359 C 350.81195060000005 581.3347168 342.24038690000003 575.2027588000001 343.28915400000005 569.935913 C 344.33773800000006 564.6691283 354.60946650000005 562.2619018 366.2314453000001 564.5590209000001 C 377.8536377000001 566.8563231 386.42517090000007 572.9880370000001 385.37640380000005 578.2548827 C 384.3278503 583.5217285 374.0561218 585.9291382 362.4341125 583.6318359 z M 390.682373 606.9655151 C 387.495697 606.3348999 385.42062369999996 603.2691649999999 386.04776 600.1175536999999 C 386.67495729999996 596.9661864999999 389.76687619999996 594.9224242999999 392.9537659 595.5530395 C 396.1406555 596.1835937 398.2155152 599.2493896 397.5883789 602.4010009 C 396.9611816 605.5523682 393.8692627 607.5961304 390.682373 606.9655151 z M 314.0438538 645.4854126 C 284.4303284 611.0326538 309.8898926 554.9859619 354.53973390000004 555.3116455 C 315.94470220000005 562.7785644 294.73629760000006 609.017456 318.8303528 642.0506592 C 326.058197 652.2428589 335.5861511 659.9113159000001 347.9398499 664.1368408000001 C 334.6614685 662.6091309 322.775116 656.0718994 314.0438538 645.4854126 z M 498.1917114 674.3818359 C 484.59896849999996 672.484375 471.838623 665.5617065 463.11822509999996 654.2582397000001 C 433.9772339 618.4666137000002 457.56625369999995 559.2604980000001 502.76040649999993 558.0340576000001 C 462.75793459999994 565.9251098000001 443.7274474999999 616.4255371000002 467.46243289999995 650.8513183000001 C 474.7133484 661.7371826 485.5571289 669.7380371 498.1917114 674.3818359 z M 408.3362732 637.0770264 C 407.97799679999997 638.8015137 405.5048523 639.7695923 402.812439 639.2393189000001 C 400.1202088 638.7091065000001 398.22818 636.8814087000001 398.5865174 635.1571656000001 C 398.9447938 633.4326173000001 401.4179383 632.4645997000001 404.110138 632.9948731000001 C 406.8025818 633.5250854 408.6946106 635.3527222 408.3362732 637.0770264 z M 539.3982544 580.8532715 C 538.3496704 586.1201172 528.0779419 588.5275879 516.4557495 586.2302857 C 504.8335571 583.9331665999999 496.26220700000005 577.8012086 497.310791 572.5343627999999 C 498.3593445 567.2675780999999 508.6311035 564.8603516 520.2532959 567.1574096999999 C 531.8754883 569.4547119 540.4467773 575.5864868 539.3982544 580.8532715 z" stroke-linecap="round" />
      </g>

      <g transform="matrix(0.5240404466931672 0 0 0.5240404466931671 72.05832755928725 -9.316555025878358)">
        <linearGradient id="SVGID_3_6_1033466" gradientUnits="userSpaceOnUse" gradientTransform="matrix(1.0015379 -0.015092 0.051048 1.0047647 -35.1721497 -0.9094126)" x1="591.7785645" y1="682.6035767" x2="626.3745728" y2="536.236084">
          <stop offset="0%" style="stop-color:rgb(241,132,0);stop-opacity: 1" />
          <stop offset="24.16716%" style="stop-color:rgb(241,125,0);stop-opacity: 1" />
          <stop offset="59.033080000000005%" style="stop-color:rgb(240,106,0);stop-opacity: 1" />
          <stop offset="100%" style="stop-color:rgb(238,75,0);stop-opacity: 1" />
        </linearGradient>
        <path style="stroke: none; stroke-width: 1; stroke-dasharray: none; stroke-linecap: butt; stroke-dashoffset: 0; stroke-linejoin: miter; stroke-miterlimit: 4; fill: url(#SVGID_3_6_1033466); fill-rule: nonzero; opacity: 1" paint-order="stroke" transform=" translate(-608.51181025, -554.3007201999999)" d="M 603.0814819 518.6196289 C 603.1150511999999 538.8304443 602.1864012999999 552.7906493999999 584.8486938 586.6464844 L 632.1749267 589.9818114999999 C 628.8508301 557.232666 618.6428223 536.319519 603.0814819 518.6196289 z" stroke-linecap="round" />
      </g>
    </g>
  </g>
</svg>
